# xmcd
#
# Track frame offsets:
#	150
#	12470
#	28363
#	45647
#	58869
#	72790
#	88933
#	102978
#	118873
#	135464
#	151329
#
# Disc length: 2218 seconds
#
# Revision: 1
# Processed by: cddbd v1.5.2PL0 Copyright (c) Steve Scherf et al.
# Submitted via: audiograbber 1.83.01
#
DISCID=9a08a80b
DTITLE=Centrefire - Country Cruisin'
DYEAR=1900
DGENRE=Country
TTITLE0=Country Cruisin'
TTITLE1=Must Be Love
TTITLE2=Some Kind Of Lady
TTITLE3=Uncle Sam's In The Middle
TTITLE4=Here In Your Love
TTITLE5=Drinkin's A Temporary Healer
TTITLE6=Two Steppin' (All The Way To Heaven)
TTITLE7=Destiny
TTITLE8=Drinkin' Man Of Me
TTITLE9=Hell Hath No Fury
TTITLE10=My Love's Gonna Haunt Your Shack
EXTD=
EXTT0=
EXTT1=
EXTT2=
EXTT3=
EXTT4=
EXTT5=
EXTT6=
EXTT7=
EXTT8=
EXTT9=
EXTT10=
PLAYORDER=
